<mxfile host="app.diagrams.net" modified="2024-03-05T07:07:48.973Z" agent="Mozilla/5.0 (X11; Linux x86_64; rv:123.0) Gecko/20100101 Firefox/123.0" etag="DdXU0E_I7CXPNC1WV8d1" version="24.0.1" type="device">
  <diagram name="Page-1" id="58cdce13-f638-feb5-8d6f-7d28b1aa9fa0">
    <mxGraphModel dx="988" dy="530" grid="1" gridSize="10" guides="1" tooltips="1" connect="1" arrows="1" fold="1" page="1" pageScale="1" pageWidth="1100" pageHeight="850" background="none" math="0" shadow="0">
      <root>
        <mxCell id="0" />
        <mxCell id="1" parent="0" />
        <mxCell id="knxwHHXPE3Sg8loonf_b-4" style="edgeStyle=orthogonalEdgeStyle;rounded=0;orthogonalLoop=1;jettySize=auto;html=1;entryX=0.5;entryY=0;entryDx=0;entryDy=0;" parent="1" source="382b91b5511bd0f7-1" target="knxwHHXPE3Sg8loonf_b-2" edge="1">
          <mxGeometry relative="1" as="geometry" />
        </mxCell>
        <mxCell id="382b91b5511bd0f7-1" value="" style="ellipse;html=1;shape=startState;fillColor=#000000;strokeColor=#ff0000;rounded=1;shadow=0;comic=0;labelBackgroundColor=none;fontFamily=Verdana;fontSize=12;fontColor=#000000;align=center;direction=south;" parent="1" vertex="1">
          <mxGeometry x="550" y="330" width="30" height="30" as="geometry" />
        </mxCell>
        <mxCell id="knxwHHXPE3Sg8loonf_b-6" style="rounded=0;orthogonalLoop=1;jettySize=auto;html=1;exitX=1;exitY=1;exitDx=0;exitDy=0;entryX=0.5;entryY=0;entryDx=0;entryDy=0;" parent="1" source="knxwHHXPE3Sg8loonf_b-2" target="knxwHHXPE3Sg8loonf_b-3" edge="1">
          <mxGeometry relative="1" as="geometry" />
        </mxCell>
        <mxCell id="knxwHHXPE3Sg8loonf_b-2" value="&lt;font style=&quot;font-size: 16px;&quot;&gt;idle&lt;/font&gt;" style="rounded=1;whiteSpace=wrap;html=1;arcSize=24;fillColor=#ffffc0;strokeColor=#ff0000;shadow=0;comic=0;labelBackgroundColor=none;fontFamily=Verdana;fontSize=12;fontColor=#000000;align=center;" parent="1" vertex="1">
          <mxGeometry x="410" y="365" width="120" height="60" as="geometry" />
        </mxCell>
        <mxCell id="knxwHHXPE3Sg8loonf_b-7" style="edgeStyle=orthogonalEdgeStyle;rounded=0;orthogonalLoop=1;jettySize=auto;html=1;exitX=0;exitY=0.5;exitDx=0;exitDy=0;entryX=1;entryY=0.5;entryDx=0;entryDy=0;" parent="1" source="knxwHHXPE3Sg8loonf_b-3" target="knxwHHXPE3Sg8loonf_b-5" edge="1">
          <mxGeometry relative="1" as="geometry" />
        </mxCell>
        <mxCell id="knxwHHXPE3Sg8loonf_b-3" value="waiting" style="rounded=1;whiteSpace=wrap;html=1;arcSize=24;fillColor=#ffffc0;strokeColor=#ff0000;shadow=0;comic=0;labelBackgroundColor=none;fontFamily=Verdana;fontSize=12;fontColor=#000000;align=center;" parent="1" vertex="1">
          <mxGeometry x="569.5" y="500" width="120" height="60" as="geometry" />
        </mxCell>
        <mxCell id="knxwHHXPE3Sg8loonf_b-8" style="rounded=0;orthogonalLoop=1;jettySize=auto;html=1;exitX=0.5;exitY=0;exitDx=0;exitDy=0;entryX=0;entryY=1;entryDx=0;entryDy=0;" parent="1" source="knxwHHXPE3Sg8loonf_b-5" target="knxwHHXPE3Sg8loonf_b-2" edge="1">
          <mxGeometry relative="1" as="geometry" />
        </mxCell>
        <mxCell id="knxwHHXPE3Sg8loonf_b-5" value="sending" style="rounded=1;whiteSpace=wrap;html=1;arcSize=24;fillColor=#ffffc0;strokeColor=#ff0000;shadow=0;comic=0;labelBackgroundColor=none;fontFamily=Verdana;fontSize=12;fontColor=#000000;align=center;" parent="1" vertex="1">
          <mxGeometry x="250.5" y="500" width="119" height="60" as="geometry" />
        </mxCell>
        <mxCell id="knxwHHXPE3Sg8loonf_b-9" value="AXI.R.Addr.valid &amp;amp; AXI.R.Addr.ready == 1" style="text;html=1;align=center;verticalAlign=middle;whiteSpace=wrap;rounded=0;" parent="1" vertex="1">
          <mxGeometry x="535" y="410" width="190" height="40" as="geometry" />
        </mxCell>
        <mxCell id="knxwHHXPE3Sg8loonf_b-10" value="" style="endArrow=none;html=1;rounded=0;" parent="1" edge="1">
          <mxGeometry width="50" height="50" relative="1" as="geometry">
            <mxPoint x="570" y="450" as="sourcePoint" />
            <mxPoint x="700" y="450" as="targetPoint" />
          </mxGeometry>
        </mxCell>
        <mxCell id="knxwHHXPE3Sg8loonf_b-11" style="edgeStyle=orthogonalEdgeStyle;rounded=0;orthogonalLoop=1;jettySize=auto;html=1;exitX=0.5;exitY=1;exitDx=0;exitDy=0;" parent="1" source="knxwHHXPE3Sg8loonf_b-9" target="knxwHHXPE3Sg8loonf_b-9" edge="1">
          <mxGeometry relative="1" as="geometry" />
        </mxCell>
        <mxCell id="knxwHHXPE3Sg8loonf_b-12" value="AXI.R.Data.valid == 1" style="text;html=1;align=center;verticalAlign=middle;whiteSpace=wrap;rounded=0;" parent="1" vertex="1">
          <mxGeometry x="374.5" y="530" width="190" height="40" as="geometry" />
        </mxCell>
        <mxCell id="knxwHHXPE3Sg8loonf_b-13" value="" style="endArrow=none;html=1;rounded=0;" parent="1" edge="1">
          <mxGeometry width="50" height="50" relative="1" as="geometry">
            <mxPoint x="389.5" y="560" as="sourcePoint" />
            <mxPoint x="549.5" y="560" as="targetPoint" />
          </mxGeometry>
        </mxCell>
        <mxCell id="knxwHHXPE3Sg8loonf_b-14" style="edgeStyle=orthogonalEdgeStyle;rounded=0;orthogonalLoop=1;jettySize=auto;html=1;exitX=0.5;exitY=1;exitDx=0;exitDy=0;" parent="1" source="knxwHHXPE3Sg8loonf_b-12" target="knxwHHXPE3Sg8loonf_b-12" edge="1">
          <mxGeometry relative="1" as="geometry" />
        </mxCell>
        <mxCell id="knxwHHXPE3Sg8loonf_b-15" value="&lt;div&gt;inst_reg &amp;lt;- AXI.R.Data.data&lt;/div&gt;&lt;div&gt;valid_reg &amp;lt;- 1&lt;br&gt;&lt;/div&gt;" style="text;html=1;align=center;verticalAlign=middle;whiteSpace=wrap;rounded=0;" parent="1" vertex="1">
          <mxGeometry x="374.5" y="550" width="190" height="60" as="geometry" />
        </mxCell>
        <mxCell id="knxwHHXPE3Sg8loonf_b-17" value="io.out.ready == 1" style="text;html=1;align=center;verticalAlign=middle;whiteSpace=wrap;rounded=0;" parent="1" vertex="1">
          <mxGeometry x="185" y="430" width="190" height="40" as="geometry" />
        </mxCell>
        <mxCell id="knxwHHXPE3Sg8loonf_b-18" value="" style="endArrow=none;html=1;rounded=0;" parent="1" edge="1">
          <mxGeometry width="50" height="50" relative="1" as="geometry">
            <mxPoint x="200" y="460" as="sourcePoint" />
            <mxPoint x="360" y="460" as="targetPoint" />
          </mxGeometry>
        </mxCell>
        <mxCell id="knxwHHXPE3Sg8loonf_b-19" style="edgeStyle=orthogonalEdgeStyle;rounded=0;orthogonalLoop=1;jettySize=auto;html=1;exitX=0.5;exitY=1;exitDx=0;exitDy=0;" parent="1" source="knxwHHXPE3Sg8loonf_b-17" target="knxwHHXPE3Sg8loonf_b-17" edge="1">
          <mxGeometry relative="1" as="geometry" />
        </mxCell>
        <mxCell id="knxwHHXPE3Sg8loonf_b-20" value="valid_reg &amp;lt;- 0" style="text;html=1;align=center;verticalAlign=middle;whiteSpace=wrap;rounded=0;" parent="1" vertex="1">
          <mxGeometry x="185" y="450" width="190" height="60" as="geometry" />
        </mxCell>
      </root>
    </mxGraphModel>
  </diagram>
</mxfile>
